<svg id="Gurugram" xmlns="http://www.w3.org/2000/svg" viewBox="0 0 100 100"><defs><style>.cls-1,.cls-2{fill:none;stroke:#000;stroke-linecap:round;stroke-linejoin:round;stroke-width:1.5px;}.cls-2{fill-rule:evenodd;}</style></defs><title>DLF City Centre</title><path class="cls-1" d="M47.13,81.8a37.94,37.94,0,0,0,4.62-1.33,32.58,32.58,0,0,0,10.76-6.4l.42-.3a.61.61,0,0,1,.16-.12"/><path class="cls-1" d="M14.09,17.93a37.4,37.4,0,0,0-8.75,11.9A36.83,36.83,0,0,0,1.7,45.68a35.61,35.61,0,0,0,2.93,14A36.91,36.91,0,0,0,24.71,79.84a36.54,36.54,0,0,0,9.09,2.51"/><path class="cls-1" d="M63.78,18.43l-.36-.21-.26-.16q-7.65-5.8-12.92-7.62A34.17,34.17,0,0,0,38.73,8.6a37.21,37.21,0,0,0-12.54,2.12,36.22,36.22,0,0,0-5.74,2.61c-.52.29-1,.6-1.53.92"/><path class="cls-1" d="M37.3,52.78a35.19,35.19,0,0,0,2.17,6.85A37,37,0,0,0,59.57,79.8a36.3,36.3,0,0,0,14,2.85,37.94,37.94,0,0,0,13-2.22A32.29,32.29,0,0,0,97.35,74l.43-.29a.64.64,0,0,1,.15-.13"/><path class="cls-1" d="M83.71,10A34.39,34.39,0,0,0,73.62,8.6,37.06,37.06,0,0,0,61,10.72,36,36,0,0,0,50.18,16.8a37.57,37.57,0,0,0-4.45,4.38"/><path class="cls-1" d="M98.3,18.22l-.25-.16A62.64,62.64,0,0,0,88.3,11.8"/><path class="cls-2" d="M40.56,77.31a7,7,0,1,1-7.05,7h0A7,7,0,0,1,40.56,77.31Z"/><path class="cls-2" d="M20.78,44.74A10.83,10.83,0,1,1,9.94,55.57,10.82,10.82,0,0,1,20.78,44.74Z"/><path class="cls-2" d="M56.07,55.17A17.93,17.93,0,1,1,48.61,21h0a17.93,17.93,0,0,1,7.46,34.22"/></svg>